<?xml version="1.0" encoding="utf-8"?>
<!-- Generator: Adobe Illustrator 21.1.0, SVG Export Plug-In . SVG Version: 6.00 Build 0)  -->
<svg version="1.1" id="Layer_1" xmlns="http://www.w3.org/2000/svg" xmlns:xlink="http://www.w3.org/1999/xlink" x="0px" y="0px" width="521" height="46" 
	 viewBox="0 0 521 46" style="enable-background:new 0 0 521 46;" xml:space="preserve">
<style type="text/css">
	.st0{fill:none;}
	.st1{fill:#02B9EF;}
	.st2{fill:#06306F;}
	.st3{fill:#ECF0F1;}
	.st4{fill:#34495E;}
	.st5{fill:#F1C40F;}
	.st6{fill:#479951;}
	.st7{fill:#FFFFFF;}
	.st8{fill:#265697;}
	.st9{fill:#DFAC16;}
	.st10{fill:#BF3126;}
	.st11{fill:#4186CD;}
	.st12{fill:#4487CA;}
	.st13{fill:#CA4638;}
	.st14{fill:#231F20;}
	.st15{display:none;}
	.st16{display:inline;fill:#CA4638;}
	.st17{display:inline;}
	.st18{fill:#1A1919;}
	.st19{display:inline;fill:#1A1919;}
	.st20{fill:#D7402F;}
	.st21{display:inline;fill:#FFFFFF;}
	.st22{display:inline;fill:none;}
	.st23{fill:#034389;}
	.st24{display:inline;fill:#034389;}
	.st25{display:inline;fill:#D7402F;}
	.st26{fill:#E0E0E0;}
</style>
<rect x="-1.8" class="st0" width="416.6" height="46"/>
<g>
	<path class="st1" d="M384.6,14.3c0.4-0.3,0.6-0.5,0.8-0.6c2.7-2.3,6.2-2,8.5,0.7c0.3,0.3,0.3,0.3,0.6,0.1c0.1-0.2,0.3-0.3,0.5-0.5
		c1.8-1.8,4.2-2.3,6.4-1.3c2.4,1.1,3.6,2.9,3.6,5.5c0.1,5.6,0,11.1,0,16.7c0,2-1.2,3.2-3.2,3.2c-0.8,0-1.6-0.1-2.3,0
		c-0.8,0.1-1.1-0.2-1.1-1c0.1-5.5,0-10.8,0-16.3c0-0.3,0-0.5,0-0.7c0-1.2-0.5-1.8-1.7-1.8c-1.1-0.1-1.8,0.6-2,1.7c0,0.3,0,0.5,0,0.8
		c0,4.7,0,9.4,0,14.1c0,2-1.2,3.3-3.2,3.2c-1.1,0-2.4,0.5-3.1-0.2c-0.5-0.6-0.2-2-0.2-3c0-4.8,0-9.7,0-14.5c0-1.7-1.1-2.6-2.6-2
		c-0.9,0.4-1.2,1.1-1.2,2c0,4.5,0,9,0,13.5c0,0.3,0,0.7,0,1.1c-0.1,1.9-1.2,3.1-3.2,3.1c-0.8,0-1.6-0.1-2.3,0
		c-0.9,0.1-1.1-0.1-1.1-1.1c0.1-7.6,0-15.2,0-22.9c0-0.3,0-0.7,0-1c-0.1-0.4,0.1-0.6,0.6-0.6c1.8,0,3.5,0,5.3,0
		c0.5,0,0.7,0.1,0.6,0.6C384.5,13.5,384.6,13.7,384.6,14.3z"/>
	<path class="st2" d="M343.5,24.8c0,2.6,0,5.3,0,8c0,3.5-1.8,5.3-5.3,5.3c-1.5,0-3,0-4.5,0c-3.1-0.1-5.3-2.1-5.5-5.1
		c-0.1-2.2-0.1-4.4,0-6.6c0.1-3.2,2.6-5.3,5.7-5.4c0.9,0,1.7,0,2.5,0s1.1-0.5,1.1-1.2c0-0.8-0.3-1.1-1.1-1.1c-0.9,0-1.8,0-2.6,0
		c-2.1-0.1-3.3-1.2-3.3-3.3c0-0.9-0.4-2,0.2-2.5c0.5-0.4,1.6-0.1,2.4-0.1c2.2,0,4.3,0,6.5,0c2.3,0,3.9,1.6,3.9,3.9
		C343.5,19.2,343.5,22,343.5,24.8z M337.6,29.2c0-0.3,0-0.7,0-1c0-2,0-2-2-1.9c-1,0.1-1.5,0.5-1.6,1.6c0,0.8,0,1.6,0,2.4
		c0,1.4,0.7,1.8,2.6,1.8c1.5,0.1,0.7-1,0.9-1.6C337.6,30.1,337.6,29.6,337.6,29.2z"/>
	<path class="st2" d="M360.8,22.7c0,3,0.1,6,0,8.9c-0.1,2.3-0.6,4.3-2.8,5.6c-0.9,0.5-1.8,0.8-2.9,0.8c-2.2,0.1-4.5,0-6.7,0.1
		c-0.5,0-0.7-0.2-0.7-0.7c0.1-0.8,0-1.6,0-2.4c0.1-1.6,1.2-2.8,2.8-2.8c1-0.1,2,0,3,0c0.8,0,1.2-0.3,1.2-1.2c0-0.9-0.4-1.2-1.2-1.2
		c-1.4-0.1-2.7,0.1-4.1-0.3c-2.3-0.7-4-2.6-4.1-5c-0.1-3.8-0.1-7.6-0.1-11.4c0-0.4,0.1-0.6,0.6-0.5c1.6,0,3.2,0.1,4.7,0
		c0.7,0,0.6,0.4,0.6,0.8c0,2.8,0,5.7,0,8.5c0,1.2,0.6,1.9,1.6,2c1.2,0.1,1.8-0.5,1.8-1.8c0-2.9,0-5.8,0-8.6c0-0.7,0.2-0.9,0.9-0.9
		c1.4,0.1,2.8,0.1,4.3,0c0.8-0.1,0.9,0.3,0.9,0.9C360.8,16.6,360.8,19.6,360.8,22.7z"/>
	<path class="st2" d="M311.3,27.1c0-3.2,0-6.3,0-9.5c0-3.1,1.9-5.1,5-5c2,0,4.1-0.3,6.1,0.1c2.6,0.5,4.2,2.5,4.2,5.1
		c0,2.8,0,5.7,0,8.4c0,3.5-2.1,5.7-5.6,5.8c-1.1,0.1-2.1,0-3.2,0c-0.5,0-0.7,0.1-0.7,0.7c0.1,0.8,0,1.6,0,2.3
		c-0.1,1.6-1.2,2.9-2.9,2.9c-1,0-2.2,0.4-2.8-0.1c-0.6-0.5-0.1-1.8-0.2-2.7C311.3,32.5,311.3,29.8,311.3,27.1z M317.2,22.3
		c0,0.6,0,1.2,0,1.8c0,2.2,0,2.2,2.2,2c0.9-0.1,1.4-0.5,1.4-1.5c0-1.1-0.1-2.2,0-3.3c0.1-3.2-0.5-2.8-3-2.8c-0.5,0-0.6,0.1-0.6,0.6
		C317.3,20.2,317.2,21.2,317.2,22.3z"/>
	<path class="st1" d="M366.3,27.1c0-2.6,0-5.2,0-7.8c0-0.6-0.1-0.9-0.8-0.9c-0.9,0.1-2,0.3-2.5-0.1c-0.6-0.6-0.1-1.8-0.2-2.7
		c0-0.1,0-0.1,0-0.2c0-0.9-0.3-2,0.1-2.6c0.4-0.7,1.6-0.3,2.4-0.5c1.6-0.4,2.9-1.4,3.9-2.7c0.7-0.9,1.6-1.5,2.7-1.8
		c0.6-0.1,1-0.1,0.9,0.7c-0.1,1.1,0,2.2,0,3.3c0,0.5,0.1,0.6,0.6,0.6c0.8,0,1.6,0,2.3,0c0.5,0,0.6,0.1,0.6,0.6c0,1.6,0,3.2,0,4.7
		c0,0.5-0.1,0.7-0.6,0.6c-0.1,0-0.2,0-0.3,0c-0.9,0.1-2-0.4-2.5,0.2c-0.4,0.5-0.1,1.6-0.1,2.6c0,5.3,0,10.5,0,15.8
		c0,0.7-0.2,1-0.9,0.9c-0.7-0.1-1.4,0-2.1,0c-2.1-0.1-3.5-1.5-3.5-3.6C366.3,31.9,366.3,29.5,366.3,27.1z"/>
</g>
<g>
	<path class="st3" d="M206.9,7.6h-40.3c-1.6,0-2.9,1.3-2.9,2.9v24.4c0,1.6,1.3,2.9,2.9,2.9h40.3c1.6,0,2.9-1.3,2.9-2.9V10.4
		C209.8,8.9,208.5,7.6,206.9,7.6z"/>
	<path class="st4" d="M206.9,7.6h-40.3c-1.6,0-2.9,1.3-2.9,2.9v2.9h46v-2.9C209.8,8.9,208.5,7.6,206.9,7.6z"/>
	<path class="st5" d="M163.8,32v2.9c0,1.6,1.3,2.9,2.9,2.9H207c1.6,0,2.9-1.3,2.9-2.9V32H163.8z"/>
	<path class="st4" d="M190.4,21.6c-1-0.6-1.6-0.9-1.6-1.4s0.6-1,1.6-1c0.7,0,1.5,0.1,2.2,0.5l0.3,0.1l0.5-2.4
		c-0.8-0.3-1.6-0.5-2.4-0.5c-2.8,0-4.7,1.6-4.7,3.7c0,1.6,1.4,2.4,2.4,3c1.2,0.6,1.4,0.9,1.4,1.4c0,0.7-0.9,1.2-1.7,1.2
		c-0.9,0.1-1.8-0.1-2.6-0.6l-0.5-0.1l-0.5,2.4c1,0.4,2.1,0.6,3.2,0.6c2.9,0,4.9-1.4,4.9-3.7C192.9,23.2,191.9,21.9,190.4,21.6z
		 M200.4,17.1h-2.2c-0.7-0.1-1.2,0.3-1.4,0.9l-4.1,10.2h2.9c0,0,0.5-1.4,0.6-1.7h3.6c0.1,0.6,0.2,1.1,0.3,1.7h2.8L200.4,17.1z
		 M196.9,24.2c0.3-0.6,1.2-3.2,1.2-3.2c0.1-0.3,0.3-0.7,0.5-1l0.1,1c0,0,0.6,2.6,0.6,3.2H196.9z M180.4,28.1h2.8l1.7-11h-2.8
		L180.4,28.1z M177.9,17.1l-2.8,7.6l-0.3-1.6c-0.7-2-2.1-3.6-3.9-4.7l2.4,9.8h3l4.5-11.1H177.9z"/>
	<path class="st5" d="M173.9,17.9c-0.1-0.7-0.7-0.9-1.3-1h-4.5v0.3c3.2,0.7,5.7,2.9,6.8,5.9L173.9,17.9z"/>
</g>
<g>
	<path id="rect" class="st6" d="M281.8,7.7c-2.4,0-28.2,0-42.6,0c-1.2,0-2.4,1.2-2.4,2.4c0,7.3,0,21.9,0,24.3s1.2,3.7,3.6,3.7
		c13.5,0,38.9,0,41.3,0s3.6-1.2,3.6-3.7c0-2.4,0-15,0-23.1C285.4,8.9,284.1,7.7,281.8,7.7z"/>
	<path class="st7" d="M273.2,18.6h-0.5c-0.5,0-0.9,0.4-0.9,0.9v5.7c0,0-0.1,1-1.7,1s-1.7-1-1.7-1v-5.7c0-0.5-0.4-0.9-0.9-0.9h-1
		c-0.5,0-0.9,0.4-0.9,0.9V25c0,2,1.6,3.5,3.5,3.5h1.9c2,0,3.5-1.6,3.5-3.5v-4.1h1.1c0.2,0,0.4-0.2,0.4-0.4v-2c0-0.2-0.2-0.4-0.4-0.4
		h-2c-0.2,0-0.4,0.2-0.4,0.4V18.6L273.2,18.6z M273.2,18.6h0.5c0.5,0,0.9,0.4,0.9,0.9v1.3h-1.1c-0.2,0-0.4-0.2-0.4-0.4v-1.8H273.2z
		 M275.9,16.1c0-0.2,0.1-0.3,0.3-0.3h1.5c0.2,0,0.3,0.1,0.3,0.3v1.5c0,0.2-0.1,0.3-0.3,0.3h-1.5c-0.2,0-0.3-0.1-0.3-0.3V16.1z
		 M274.5,14.7c0-0.1,0.1-0.3,0.3-0.3h1c0.1,0,0.3,0.1,0.3,0.3v1c0,0.1-0.1,0.3-0.3,0.3h-1c-0.1,0-0.3-0.1-0.3-0.3V14.7z M261.5,28.5
		h-0.2c-1.6,0.2-1.9-1-2.2-1.9l-1.4-5.2c-0.1-0.3,0.1-0.5,0.4-0.5h0.3c0.3,0,0.5,0.2,0.7,0.5c0,0,0.9,3.3,1.4,5.2
		c0.1,0.4,0.3,0.7,0.8,0.7s0.7-0.1,0.9-0.8l1.2-5.1c0.1-0.3,0.3-0.5,0.6-0.5h0.3c0.3,0,0.5,0.2,0.4,0.5l-1.6,6.6
		c-0.7,2.9-1.7,3.3-3.2,3.4c-0.5-0.1-0.7-1-0.3-1.2c0,0,0.8,0,1.2-0.3C261.3,29.5,261.5,28.9,261.5,28.5
		C261.5,28.7,261.5,28.5,261.5,28.5z"/>
	<path id="Path" class="st7" d="M255.9,24.1h-2.5c-1.2,0-2.2,1-2.2,2.2s1,2.2,2.2,2.2h1.6c1.2,0,2.2-1,2.2-2.2v-1.8v-1.3
		c0-2.2-2.4-2.2-3.1-2.2c-0.9,0-1.9,0.1-1.9,0.1c-0.2,0-0.3,0.2-0.3,0.4V22c0,0.2,0.1,0.3,0.3,0.3c0,0,1.2-0.1,1.8-0.1
		c0.7,0,1.8,0,1.8,1.1L255.9,24.1L255.9,24.1z M252.6,26.2c0-0.7,0.5-1.2,1.2-1.2h2.2v1.2c0,0.7-0.5,1.2-1.2,1.2h-1.1
		C253.1,27.4,252.6,26.9,252.6,26.2z"/>
	<path id="Path_1_" class="st7" d="M244.1,20c0-0.8,0.7-1.4,1.4-1.4h3.1c1.5,0,2.8,1.2,2.8,2.7v0.9c0,1.5-1.2,2.7-2.8,2.7h-3.1V28
		c0,0.2-0.2,0.4-0.4,0.4h-0.6c-0.2,0-0.4-0.2-0.4-0.4V20L244.1,20z M245.4,20.3c0-0.2,0.2-0.4,0.4-0.4h2.2c1.1,0,1.8,0.9,1.8,1.8
		c0,1.1-0.9,1.8-1.8,1.8h-2.6L245.4,20.3L245.4,20.3z"/>
	<path class="st6" d="M245.4,20.3c0-0.2,0.2-0.4,0.4-0.4h2.2c1.1,0,1.8,0.9,1.8,1.8c0,1.1-0.9,1.8-1.8,1.8h-2.6L245.4,20.3
		L245.4,20.3z"/>
</g>
<g>
	<path class="st8" d="M133.9,8.3h-42c-1.2,0-2.4,1.2-2.4,2.4v24c0,2.4,1.2,3.6,3.6,3.6h40.7c2.4,0,3.6-1.2,3.6-3.6V12
		C137.5,9.5,136.3,8.3,133.9,8.3z"/>
	<path class="st9" d="M134.4,23.5c0.1,6.9-5.5,12.6-12.4,12.6c-6.9,0.1-12.6-5.5-12.6-12.4c0-0.1,0-0.2,0-0.3l0,0
		c-0.1-6.9,5.5-12.6,12.4-12.6s12.6,5.5,12.6,12.4C134.4,23.3,134.4,23.4,134.4,23.5L134.4,23.5z"/>
	<path class="st10" d="M105.1,10.8c-6.8,0.1-12.4,5.7-12.4,12.6S98.3,36,105.2,36c3.1,0,6.1-1.2,8.4-3.3l0,0l0,0
		c0.5-0.4,0.9-0.9,1.2-1.4h-2.6c-0.3-0.4-0.7-0.9-0.9-1.3h4.4c0.3-0.5,0.5-0.9,0.7-1.4h-5.8c-0.2-0.5-0.4-0.9-0.5-1.3h6.9
		c0.7-2.2,0.9-4.5,0.3-6.7h-7.6c0.1-0.5,0.2-0.9,0.3-1.3h6.9c-0.1-0.5-0.3-0.9-0.5-1.4h-5.8c0.2-0.5,0.5-0.9,0.7-1.3h4.4
		c-0.3-0.5-0.6-0.9-1-1.4h-2.4c0.4-0.5,0.8-0.9,1.2-1.2C111.2,12,108.2,10.8,105.1,10.8L105.1,10.8L105.1,10.8z"/>
	<path class="st7" d="M109.7,26.7l0.2-1.1c-0.1,0-0.2,0.1-0.3,0.1c-0.5,0-0.5-0.3-0.5-0.5l0.4-2.3h0.7l0.2-1.2h-0.7l0.1-0.8h-1.3
		c0,0-0.8,4.4-0.8,4.9c0,0.8,0.5,1.1,1.1,1.1C109,26.9,109.3,26.8,109.7,26.7L109.7,26.7z"/>
	<path class="st7" d="M110.1,24.5c0,1.9,1.2,2.4,2.3,2.4c0.5,0,1-0.1,1.4-0.2l0.3-1.3c-0.5,0.2-0.9,0.3-1.4,0.3
		c-1.4,0-1.2-1.1-1.2-1.1h2.7c0.1-0.4,0.1-0.8,0.2-1.2c0-0.9-0.5-2-1.9-2C111,21.4,110.1,22.9,110.1,24.5L110.1,24.5z M112.4,22.6
		c0.7,0,0.6,0.9,0.6,0.9h-1.4C111.6,23.5,111.7,22.6,112.4,22.6z"/>
	<path class="st7" d="M120.8,26.7l0.3-1.4c-0.3,0.2-0.7,0.3-1.1,0.3c-0.9,0-1.3-0.7-1.3-1.5c0-1.6,0.8-2.4,1.7-2.4
		c0.5,0,0.9,0.1,1.2,0.4l0.2-1.4c-0.5-0.2-1-0.3-1.5-0.3c-1.5,0-3,1.3-3,3.9c0,1.6,0.8,2.8,2.4,2.8C120,26.9,120.4,26.8,120.8,26.7
		L120.8,26.7z"/>
	<path class="st7" d="M102.4,21.4c-0.5,0-1.1,0.1-1.6,0.3l-0.2,1.2c0.5-0.1,1-0.3,1.4-0.3c0.5,0,0.9,0.1,0.9,0.5
		c0,0.1,0,0.2-0.1,0.3c0,0-0.4-0.1-0.6-0.1c-1.1,0-2.4,0.5-2.4,2c0,1.2,0.8,1.4,1.3,1.4s1.1-0.2,1.4-0.6l-0.1,0.5h1.2l0.5-3.7
		C104.1,21.5,102.8,21.4,102.4,21.4L102.4,21.4z M102.6,24.4c0,0.2-0.1,1.3-0.9,1.3c-0.3,0-0.5-0.2-0.5-0.5v-0.1
		c0-0.4,0.2-0.8,1.2-0.8C102.4,24.4,102.6,24.4,102.6,24.4L102.6,24.4z"/>
	<path class="st7" d="M105.4,26.8c0.3,0,2,0.1,2-1.7c0-1.6-1.6-1.3-1.6-2c0-0.3,0.3-0.5,0.7-0.5c0.2,0,0.9,0.1,0.9,0.1l0.2-1.2
		c-0.4-0.1-0.8-0.1-1.2-0.1c-1,0-2,0.4-2,1.8c0,1.5,1.6,1.4,1.6,2c0,0.5-0.5,0.5-0.9,0.5s-0.8-0.1-1.2-0.2l-0.2,1.2
		C103.9,26.7,104.3,26.8,105.4,26.8L105.4,26.8z"/>
	<path class="st7" d="M131.8,20.4l-0.3,1.8c-0.3-0.4-0.8-0.7-1.3-0.7c-1.2,0-2.2,1.5-2.2,3.2c0,1.1,0.5,2.2,1.6,2.2
		c0.5,0,0.9-0.2,1.2-0.6l-0.1,0.5h1.3l1-6.4H131.8z M131.2,23.9c0,0.7-0.3,1.6-1.1,1.6c-0.5,0-0.7-0.4-0.7-1.1
		c0-1.1,0.5-1.7,1.1-1.7C131,22.7,131.2,23.1,131.2,23.9L131.2,23.9z"/>
	<path class="st7" d="M95.1,26.7l0.8-4.8l0.1,4.8h1l1.7-4.8l-0.8,4.8h1.4l1.1-6.4h-2.1L97,24.2l-0.1-3.9h-2l-1.1,6.4H95.1z"/>
	<path class="st7" d="M115.6,26.7c0.4-2.2,0.5-4,1.4-3.7c0.1-0.5,0.3-1.1,0.5-1.6c-0.1,0-0.2,0-0.3,0c-0.6,0-1.1,0.9-1.1,0.9
		l0.1-0.7H115l-0.9,5.2L115.6,26.7L115.6,26.7z"/>
	<path class="st7" d="M123.9,21.4c-0.5,0-1.1,0.1-1.6,0.3l-0.2,1.2c0.5-0.1,1-0.3,1.4-0.3c0.5,0,0.9,0.1,0.9,0.5
		c0,0.1,0,0.2-0.1,0.3c0,0-0.4-0.1-0.6-0.1c-1.1,0-2.4,0.5-2.4,2c0,1.2,0.8,1.4,1.3,1.4s1.1-0.2,1.4-0.6l-0.1,0.5h1.2l0.5-3.7
		C125.7,21.5,124.4,21.4,123.9,21.4L123.9,21.4z M124.2,24.4c0,0.2-0.1,1.3-0.9,1.3c-0.3,0-0.5-0.2-0.5-0.5v-0.1
		c0-0.4,0.2-0.8,1.2-0.8C124,24.4,124.1,24.4,124.2,24.4L124.2,24.4z"/>
	<path class="st7" d="M126.8,26.7c0.4-2.2,0.5-4,1.4-3.7c0.1-0.5,0.3-1.1,0.5-1.6c-0.1,0-0.2,0-0.3,0c-0.6,0-1.1,0.9-1.1,0.9
		l0.1-0.7h-1.2l-0.9,5.2L126.8,26.7z"/>
</g>
<g>
	<path class="st11" d="M38.8,34.2c6.2-5.6,6.6-15,1.1-21.2s-15-6.6-21.2-1.1s-6.6,15-1.1,21.2c2.8,3.2,6.9,4.9,11.2,4.9
		C32.4,38,36,36.7,38.8,34.2"/>
	<path class="st12" d="M38.8,34.2c6.2-5.6,6.6-15.1,1.1-21.3c-0.3-0.3-0.7-0.7-1.1-1.1V34.2z"/>
	<path class="st13" d="M48.9,8c-3.7,0-7.4,1.4-10.1,3.9c-0.5,0.5-1.1,1.1-1.5,1.6h3c0.4,0.5,0.8,1.1,1.1,1.6h-5.3
		c-0.3,0.5-0.6,1.1-0.9,1.6h7c0.3,0.5,0.5,1.1,0.7,1.6h-8.3c-0.2,0.5-0.3,1.1-0.5,1.6h9.2c0.2,1.1,0.3,2.1,0.3,3.2
		c0,1.6-0.3,3.2-0.8,4.8h-8.3c0.2,0.5,0.4,1.1,0.7,1.6h7c-0.3,0.5-0.5,1.1-0.9,1.6H36c0.3,0.5,0.7,1.1,1.1,1.6h3
		c-0.5,0.6-1,1.1-1.5,1.6c2.8,2.5,6.4,3.9,10.1,3.9c8.3,0,15-6.7,15-15C63.9,14.7,57.2,8,48.9,8"/>
	<path class="st14" d="M62.3,31.3L62.3,31.3L62.3,31.3c0.1,0,0.2,0,0.2-0.1c0,0,0-0.1-0.1-0.1h-0.1h-0.1L62.3,31.3L62.3,31.3z
		 M62.3,31.6L62.3,31.6l-0.1-0.5h0.2c0.1,0,0.1,0,0.1,0l0.1,0.1c0,0.1,0,0.1-0.1,0.1l0.1,0.2h-0.1l-0.1-0.2h-0.1L62.3,31.6
		L62.3,31.6z M62.4,31.7c0.2,0,0.4-0.1,0.4-0.3c0-0.2-0.1-0.4-0.3-0.4l0,0c-0.2,0-0.4,0.2-0.3,0.4C62,31.6,62.2,31.7,62.4,31.7z
		 M61.9,31.4c0-0.3,0.2-0.5,0.5-0.5s0.5,0.2,0.5,0.5s-0.2,0.5-0.5,0.5l0,0C62.1,31.9,61.9,31.7,61.9,31.4z"/>
	<path class="st14" d="M26.3,27.2h-1.9l1.1-5.8L23,27.2h-1.6l-0.3-5.8l-1.2,5.8h-1.7l1.4-7.6h3l0.1,4.7l2-4.7h3.2L26.3,27.2"/>
	<path class="st14" d="M47.2,27.1c-0.5,0.1-0.9,0.2-1.3,0.2c-1,0-1.4-0.5-1.4-1.4c0-0.2,0-0.4,0.1-0.5l0.1-0.6l0.1-0.5l0.9-4.7h1.8
		L47.1,21h1l-0.3,1.5h-1l-0.5,2.6c0,0.1,0,0.2,0,0.3c0,0.3,0.2,0.5,0.7,0.5c0.2,0,0.3,0,0.5-0.1L47.2,27.1"/>
	<path class="st14" d="M39.8,22.9c0,0.8,0.4,1.3,1.4,1.7c0.8,0.3,0.9,0.4,0.9,0.7c0,0.4-0.3,0.6-1.1,0.6c-0.6,0-1.1-0.1-1.7-0.3
		L39,27h0.1l0.3,0.1c0.1,0,0.3,0.1,0.5,0.1c0.5,0.1,0.8,0.1,1.1,0.1c2,0,2.9-0.7,2.9-2.1c0-0.9-0.4-1.4-1.3-1.7
		c-0.8-0.3-0.9-0.4-0.9-0.7c0-0.3,0.3-0.5,0.9-0.5c0.5,0,0.9,0.1,1.4,0.1l0.3-1.4c-0.5-0.1-1.1-0.1-1.6-0.1
		C40.5,20.8,39.8,21.8,39.8,22.9"/>
	<path class="st14" d="M31.1,24.4c-0.1,0-0.3,0-0.4,0c-1.1,0-1.6,0.3-1.6,0.9c0,0.4,0.3,0.7,0.7,0.7C30.5,26,31.1,25.4,31.1,24.4
		L31.1,24.4z M32.4,27.2h-1.6l0.1-0.7c-0.5,0.5-1.1,0.7-2,0.7c-1.1,0-1.7-0.7-1.7-1.7c0-1.5,1.2-2.4,3.3-2.4c0.3,0,0.5,0,0.8,0.1
		c0.1-0.1,0.1-0.3,0.1-0.4c0-0.4-0.3-0.6-1.2-0.6c-0.5,0-1.1,0.1-1.6,0.2l-0.3,0.1l-0.2,0.1l0.3-1.4c0.9-0.3,1.5-0.3,2.2-0.3
		c1.6,0,2.4,0.7,2.4,1.8c0,0.3,0,0.5-0.1,1.2l-0.4,2.2l-0.1,0.4l-0.1,0.3v0.1L32.4,27.2L32.4,27.2z"/>
	<path class="st14" d="M37.6,23.4c0-0.1,0-0.3,0-0.3c0-0.5-0.3-0.8-0.9-0.8s-1.1,0.4-1.2,1.1C35.5,23.4,37.6,23.4,37.6,23.4z
		 M38.6,27.1c-0.7,0.2-1.2,0.3-1.9,0.3c-2.1,0-3.2-1-3.2-2.8c0-2.1,1.4-3.7,3.3-3.7c1.5,0,2.5,0.9,2.5,2.2c0,0.5-0.1,1.1-0.3,1.5
		h-3.7c0,0.1,0,0.1,0,0.2c0,0.7,0.6,1.1,1.6,1.1c0.7,0,1.3-0.1,2-0.4L38.6,27.1L38.6,27.1z"/>
	<path class="st14" d="M56.6,23.7c0-0.7-0.3-1.2-1.1-1.2c-1,0-1.5,1.1-1.5,2.1c0,0.9,0.4,1.4,1.1,1.4c0.4,0,1.2-0.5,1.4-1.5
		C56.6,24.1,56.6,23.9,56.6,23.7L56.6,23.7z M58.5,24.4c-0.3,2-1.7,3-3.6,3c-2.1,0-3-1.3-3-2.8c0-2.2,1.4-3.7,3.7-3.7
		c2,0,3,1.2,3,2.8C58.5,23.9,58.5,24.1,58.5,24.4L58.5,24.4z"/>
	<path class="st7" d="M59.1,26.2L59.1,26.2C59.2,26.2,59.2,26.2,59.1,26.2c0.1,0,0.1,0,0.1-0.1V26h-0.1H59L59.1,26.2L59.1,26.2z
		 M59.1,26.5L59.1,26.5V26h0.2c0.1,0,0.1,0,0.1,0l0.1,0.1c0,0.1,0,0.1-0.1,0.1l0.1,0.2h-0.1l-0.1-0.2h-0.1L59.1,26.5L59.1,26.5z
		 M59.2,26.6c0.2,0,0.4-0.2,0.3-0.4c0-0.2-0.1-0.3-0.3-0.3s-0.4,0.1-0.4,0.3S58.9,26.6,59.2,26.6L59.2,26.6z M58.7,26.3
		c0-0.3,0.2-0.5,0.5-0.5s0.5,0.2,0.5,0.5s-0.2,0.5-0.5,0.5l0,0C58.9,26.7,58.7,26.5,58.7,26.3z"/>
	<path class="st7" d="M26.8,26.7h-1.9l1.1-5.8l-2.6,5.8h-1.7l-0.3-5.8l-1.1,5.8h-1.7l1.4-7.6h3l0.1,4.7l2.1-4.7h3L26.8,26.7"/>
	<path class="st7" d="M47.7,26.7c-0.5,0.1-0.9,0.2-1.3,0.2c-1,0-1.4-0.5-1.4-1.4c0-0.2,0-0.4,0.1-0.5l0.1-0.6l0.1-0.5l0.9-4.7H48
		l-0.3,1.4h1l-0.3,1.5h-1l-0.5,2.5c0,0.1,0,0.2,0,0.3c0,0.3,0.2,0.5,0.7,0.5c0.2,0,0.3,0,0.5-0.1L47.7,26.7"/>
	<path class="st14" d="M52.5,22.3l-0.1-0.2l0.4-1c-0.1,0-0.1,0-0.1,0c-0.1,0-0.1-0.1-0.2-0.1c-0.1,0-0.1,0-0.2,0
		c-0.7,0-1.1,0.3-1.6,1l0.2-1.1h-2l-1.1,6.2h1.8c0.3-1.4,0.3-2.2,0.5-2.9c0.3-1.1,1.1-1.6,1.6-1.5c0.1,0,0.1,0,0.2,0.1l0.1,0.1
		L52.5,22.3"/>
	<path class="st7" d="M53.2,20.6c-0.1,0-0.1-0.1-0.2-0.1c-0.1,0-0.1-0.1-0.1-0.1c-0.1,0-0.1,0-0.2,0c-0.6,0-1.1,0.3-1.6,1l0.2-0.9
		h-1.7l-1.1,6.2h1.9c0.7-3.8,1-4.5,1.8-4.5c0.1,0,0.1,0,0.2,0l0.2,0.1L53.2,20.6"/>
	<path class="st7" d="M40.3,22.5c0,0.8,0.5,1.3,1.4,1.7c0.8,0.3,0.9,0.4,0.9,0.7c0,0.4-0.3,0.6-1.1,0.6c-0.6,0-1.1-0.1-1.7-0.3
		l-0.3,1.4h0.1l0.3,0.1c0.2,0,0.3,0.1,0.5,0.1c0.5,0.1,0.8,0.1,1.1,0.1c2,0,3-0.7,3-2c0-0.9-0.4-1.4-1.3-1.7
		c-0.8-0.3-0.9-0.4-0.9-0.7c0-0.3,0.3-0.5,0.9-0.5c0.5,0,0.9,0.1,1.4,0.1l0.3-1.4c-0.5-0.1-1.1-0.1-1.6-0.1
		C41,20.4,40.3,21.4,40.3,22.5"/>
	<path class="st7" d="M31.5,24c-0.1,0-0.3,0-0.4,0c-1.1,0-1.6,0.3-1.6,0.9c0,0.4,0.3,0.7,0.7,0.7C30.9,25.6,31.5,24.9,31.5,24
		L31.5,24z M32.9,26.7h-1.6l0.1-0.7c-0.5,0.5-1.1,0.7-2,0.7c-1,0-1.7-0.7-1.7-1.7c0-1.5,1.2-2.4,3.3-2.4c0.2,0,0.5,0,0.8,0.1
		c0.1-0.1,0.1-0.3,0.1-0.4c0-0.4-0.3-0.6-1.2-0.6c-0.5,0-1.1,0.1-1.5,0.2L28.9,22l-0.1,0.1l0.3-1.4c0.9-0.3,1.5-0.3,2.2-0.3
		c1.6,0,2.4,0.7,2.4,1.8c0,0.4-0.1,0.9-0.1,1.2L33,25.7v0.4l-0.1,0.3v0.2V26.7L32.9,26.7z"/>
	<path class="st7" d="M38,22.9v-0.3c0-0.5-0.3-0.8-0.9-0.8c-0.6,0-1.1,0.4-1.2,1.1L38,22.9L38,22.9z M39,26.6
		c-0.6,0.2-1.2,0.3-1.9,0.3c-2.1,0-3.2-1-3.2-2.8c0-2.1,1.4-3.7,3.3-3.7c1.5,0,2.5,0.9,2.5,2.2c0,0.5-0.1,1.1-0.2,1.5h-3.7
		c0,0.1,0,0.1,0,0.2c0,0.7,0.5,1.1,1.6,1.1c0.7,0,1.3-0.1,2-0.4L39,26.6L39,26.6z"/>
	<path class="st7" d="M57,23.1c0-0.7-0.3-1.2-1.1-1.2c-1,0-1.5,1.1-1.5,2.1c0,0.9,0.4,1.4,1.1,1.4c0.4,0,1.2-0.5,1.4-1.5
		C57,23.7,57,23.4,57,23.1L57,23.1z M59,23.9c-0.3,2.1-1.7,3-3.7,3c-2.1,0-3-1.3-3-2.9c0-2.2,1.4-3.7,3.7-3.7c2,0,3,1.2,3,2.8
		C59.1,23.5,59,23.7,59,23.9L59,23.9z"/>
</g>
<g class="st15">
	<path class="st16" d="M506,7.7h-62c-0.3,0-0.5,0.1-0.7,0.1c-0.6,0.3-1.1,0.9-1.1,1.6v26.9c0,1,0.8,1.8,1.8,1.8h62
		c0.5,0,0.9-0.2,1.2-0.4c0.4-0.3,0.6-0.8,0.6-1.3V9.5C507.7,8.5,506.9,7.7,506,7.7z M444,8.6h62c0.5,0,0.9,0.4,0.9,0.9v26.9
		c0,0.5-0.4,0.9-0.9,0.9h-62c-0.5,0-0.9-0.4-0.9-0.9V9.5C443.1,9,443.5,8.6,444,8.6z"/>
	<g class="st17">
		<circle class="st18" cx="443.9" cy="22.9" r="14.4"/>
		<path class="st18" d="M443.9,37.8c-8.2,0-14.8-6.6-14.8-14.8s6.6-14.8,14.8-14.8s14.8,6.6,14.8,14.8
			C458.7,31.1,452.1,37.8,443.9,37.8z M443.9,9c-7.7,0-13.9,6.2-13.9,13.9s6.2,13.9,13.9,13.9s13.9-6.2,13.9-13.9S451.6,9,443.9,9z"
			/>
	</g>
	<g class="st17">
		<path class="st7" d="M439.4,18.6c2.2-2.6,4.4-5.2,6.6-7.8c1.8,1.5,3.7,3.1,5.5,4.6c-0.4,0.5-0.9,1-1.3,1.5
			c0.4,0.5,0.9,1.1,1.3,1.6s0.4,0.8-0.1,1.3c-1.9,1.5-3.8,3.1-5.7,4.6c-0.7,0.5-1.3,1.1-2,1.6c-0.5,0.4-0.8,0.4-1.3-0.1
			c-0.4-0.4-0.8-0.8-1.2-1.2c-1-0.9-2.1-1.7-3.1-2.6c0,0-0.1,0-0.1-0.1c0.1,0,0.2,0,0.3,0.1c0.7,0.2,1.4,0.4,2.1,0.7
			c0.8,0.3,1.6-0.1,2-0.9c0.3-0.7,0-1.5-0.7-2c-0.6-0.4-1.3-0.7-1.9-1.1C439.6,18.7,439.5,18.7,439.4,18.6z M444.1,16.1
			c-0.9-0.1-2,0.8-2,1.6C442.7,17.2,443.4,16.6,444.1,16.1z"/>
		<path class="st7" d="M453.5,31.6c-0.7,0.1-1.4,0.1-2.1,0.2c-1,0.1-1.9,0.2-2.9,0.3c-0.1,0-0.3,0-0.4-0.1c-0.4-0.5-0.9-0.7-1.6-0.7
			c-1.2,0-2.4,0-3.6,0c-0.9,0-1.7-0.2-2.4-0.7c-1.1-0.9-2.2-1.8-3.3-2.8c-0.4-0.4-0.4-0.9-0.1-1.3s0.9-0.5,1.4-0.2
			c0.8,0.6,1.7,1.2,2.5,1.7c0.6,0.4,1.2,0.6,2,0.6c1.1,0,2.1,0,3.2,0c0.1,0,0.2,0,0.3,0c0.1-0.1,0.2-0.2,0.2-0.3
			c0-0.1-0.1-0.2-0.2-0.3c-0.1,0-0.2,0-0.3,0c-0.7,0-1.4,0-2,0s-1.1-0.6-0.9-1.2c0.1-0.4,0.4-0.6,0.8-0.6c1.7,0,3.4,0,5.2,0
			c1.1,0,1.9,0.6,2.4,1.5c0.6,1,1,2.1,1.4,3.2C453.3,31.1,453.4,31.3,453.5,31.6z"/>
		<path class="st7" d="M433.5,15.7c1.1-0.3,2.2-0.6,3.2-0.9c0.9-0.3,1.7-0.3,2.6-0.1c0.7,0.1,1.4,0.2,2.1,0.4
			c-0.1,0.1-0.1,0.2-0.2,0.2c-0.6,0.7-1.2,1.5-1.9,2.2c-0.1,0.1-0.3,0.2-0.4,0.2s-0.3,0-0.4,0c-0.3,0-0.5,0.2-0.6,0.4
			c-0.1,0.3,0.1,0.5,0.3,0.6c0.8,0.5,1.7,0.9,2.5,1.4c0.1,0.1,0.3,0.2,0.4,0.2c0.4,0.3,0.6,0.7,0.4,1.2c-0.2,0.4-0.6,0.6-1.1,0.5
			c-1.2-0.4-2.3-0.7-3.5-1.1c-0.4-0.1-0.7-0.4-1-0.7c-0.4-0.4-0.8-0.6-1.4-0.4c-0.4,0.1-0.8,0.2-1.2,0.3
			C433.5,18.7,433.5,17.1,433.5,15.7z"/>
		<path class="st7" d="M448,32.8c2.1-0.2,4.1-0.4,6.2-0.6c0,0.5,0,0.9,0,1.3c0,0.1-0.1,0.1-0.2,0.2c0,0-0.1,0-0.2,0
			c-1.8,0-3.7,0-5.5,0c-0.3,0-0.4-0.1-0.3-0.4c0-0.1,0-0.1,0-0.2C448,33,448,32.9,448,32.8z"/>
		<polygon class="st7" points="448.4,36.8 453.2,34.4 453.5,33.3 448,33.3 		"/>
		<path class="st7" d="M431.4,15.1c0.5,0,0.9,0,1.4,0c0,2,0,4,0,6.1c-0.2,0-0.5,0-0.7,0c-0.1,0-0.1-0.1-0.1-0.2c-0.1-1-0.2-2-0.3-3
			c-0.1-0.9-0.2-1.8-0.3-2.7C431.4,15.2,431.4,15.1,431.4,15.1z"/>
		<path class="st7" d="M431.7,15.3l0.6,5.9l-3.1-0.2C429.2,20.9,430.7,15.4,431.7,15.3z"/>
	</g>
	<circle class="st19" cx="445.7" cy="19.5" r="2.6"/>
	<g class="st17">
		<path class="st20" d="M460.7,19.3c0-3.6,2.6-6,6.1-6c2.3,0,3.8,1.2,4.6,2.6l-1.7,0.9c-0.6-1-1.7-1.7-2.9-1.7c-2.3,0-4,1.7-4,4.2
			c0,2.4,1.7,4.2,4,4.2c1.2,0,2.4-0.7,2.9-1.7l1.7,0.9c-0.9,1.4-2.3,2.6-4.6,2.6C463.3,25.3,460.7,22.8,460.7,19.3z"/>
		<path class="st20" d="M481,25.1l-0.8-2.2h-5.3l-0.8,2.2h-2.3l4.5-11.5h2.5l4.5,11.5H481z M477.5,15.5l-2.1,5.5h4.2L477.5,15.5z"/>
		<path class="st20" d="M483.6,23.4l1.1-1.6c0.8,0.8,2,1.6,3.6,1.6c1.7,0,2.3-0.8,2.3-1.6c0-2.4-6.7-0.9-6.7-5.2
			c0-1.9,1.7-3.4,4.2-3.4c1.8,0,3.3,0.6,4.3,1.6l-1.1,1.5c-0.9-0.9-2.1-1.3-3.4-1.3c-1.2,0-1.9,0.6-1.9,1.4c0,2.2,6.7,0.8,6.7,5.1
			c0,1.9-1.4,3.6-4.5,3.6C486.2,25.3,484.6,24.5,483.6,23.4z"/>
		<path class="st20" d="M502.6,25.1v-5h-6v5h-2V13.5h2v4.7h6v-4.7h2V25h-2V25.1z"/>
		<path class="st20" d="M460.2,31.2c0-1.4,1-2.4,2.4-2.4s2.4,1,2.4,2.4c0,1.4-1,2.4-2.4,2.4C461.2,33.7,460.2,32.6,460.2,31.2z
			 M464.2,31.2c0-1-0.6-1.7-1.6-1.7s-1.6,0.7-1.6,1.7s0.6,1.7,1.6,1.7S464.2,32.2,464.2,31.2z"/>
		<path class="st20" d="M469.2,33.6l-2.5-3.4v3.4h-0.8v-4.7h0.9l2.4,3.3v-3.3h0.8v4.7H469.2z"/>
		<path class="st20" d="M472.8,33.6v-4.7h1.8c1.5,0,2.5,1,2.5,2.4s-1,2.4-2.5,2.4L472.8,33.6L472.8,33.6z M476.2,31.2
			c0-0.9-0.6-1.6-1.6-1.6h-0.9v3.3h0.9C475.6,32.8,476.2,32.1,476.2,31.2z"/>
		<path class="st20" d="M477.9,33.6v-4.7h3.2v0.7h-2.4v1.2h2.4v0.7h-2.4v1.3h2.4v0.7L477.9,33.6L477.9,33.6z"/>
		<path class="st20" d="M481.9,33.6v-4.7h0.8v4h2.1v0.7H481.9z"/>
		<path class="st20" d="M485.5,33.6v-4.7h0.8v4.7H485.5z"/>
		<path class="st20" d="M488.7,33.6l-1.9-4.7h0.9l1.4,3.8l1.4-3.8h0.9l-1.9,4.7H488.7z"/>
		<path class="st20" d="M492.1,33.6v-4.7h3.2v0.7H493v1.2h2.4v0.7H493v1.3h2.4v0.7L492.1,33.6L492.1,33.6z"/>
		<path class="st20" d="M498.9,33.6l-1-1.8h-0.8v1.8h-0.8v-4.7h2.1c0.9,0,1.6,0.6,1.6,1.5c0,0.8-0.6,1.3-1.1,1.4l1.2,1.9L498.9,33.6
			L498.9,33.6z M499,30.3c0-0.5-0.3-0.7-0.8-0.7h-1.1v1.5h1.1C498.7,31.1,499,30.8,499,30.3z"/>
		<path class="st20" d="M501.9,33.6v-2l-1.8-2.8h1l1.3,2l1.3-2h1l-1.8,2.8v2H501.9z"/>
	</g>
	<g class="st17">
		<path class="st13" d="M443.9,38.2c-8.4,0-15.2-6.8-15.2-15.2s6.8-15.2,15.2-15.2c8.4,0,15.2,6.8,15.2,15.2
			C459.1,31.3,452.3,38.2,443.9,38.2z M443.9,8.6c-7.9,0-14.3,6.4-14.3,14.3s6.4,14.3,14.3,14.3s14.3-6.4,14.3-14.3
			S451.8,8.6,443.9,8.6z"/>
	</g>
	<path class="st21" d="M445.3,18.1l0.5-0.3v-0.4l-1.8,1.3v0.4l0.3-0.2c0.3-0.2,0.6-0.4,0.9-0.2l-0.9,0.6v0.4l1.1-0.8l0,0
		c0.1,0.2,0.2,0.6-0.4,1l-0.3,0.2l0.2,0.3l2,0.6l0.5-0.3l-2.1-0.6c0.4-0.3,0.7-0.9,0.4-1.4l0.3-0.2v-0.4l-0.5,0.4
		C445.6,18.2,445.4,18.2,445.3,18.1z"/>
</g>
<g class="st15">
	<path class="st21" d="M505.8,8.6h-61.7c-0.5,0-0.9,0.4-0.9,0.9v26.8c0,0.5,0.4,0.9,0.9,0.9h61.7c0.5,0,0.9-0.4,0.9-0.9V9.5
		C506.7,9,506.3,8.6,505.8,8.6z"/>
	<path class="st22" d="M505.8,8.6h-61.7c-0.5,0-0.9,0.4-0.9,0.9v26.8c0,0.5,0.4,0.9,0.9,0.9h61.7c0.5,0,0.9-0.4,0.9-0.9V9.5
		C506.7,9,506.3,8.6,505.8,8.6z"/>
	<path class="st16" d="M505.8,7.7h-61.7c-0.3,0-0.5,0.1-0.7,0.1c-0.6,0.3-1.1,0.9-1.1,1.6v26.8c0,1,0.8,1.8,1.8,1.8h61.7
		c0.4,0,0.9-0.2,1.2-0.4c0.4-0.3,0.6-0.8,0.6-1.3V9.5C507.6,8.5,506.8,7.7,505.8,7.7z M444.1,8.6h61.7c0.5,0,0.9,0.4,0.9,0.9v26.8
		c0,0.5-0.4,0.9-0.9,0.9h-61.7c-0.5,0-0.9-0.4-0.9-0.9V9.5C443.3,9,443.7,8.6,444.1,8.6z"/>
	<g class="st17">
		<circle class="st23" cx="444" cy="22.9" r="14.7"/>
		<path class="st13" d="M444,38.1c-8.4,0-15.2-6.8-15.2-15.2S435.6,7.7,444,7.7c8.4,0,15.2,6.8,15.2,15.2S452.4,38.1,444,38.1z
			 M444,8.6c-7.9,0-14.3,6.4-14.3,14.3s6.4,14.3,14.3,14.3s14.3-6.4,14.3-14.3S451.9,8.6,444,8.6z"/>
	</g>
	<g class="st17">
		<path class="st7" d="M439.5,18.6c2.2-2.6,4.4-5.2,6.6-7.8c1.8,1.5,3.7,3.1,5.5,4.6c-0.4,0.5-0.8,1-1.3,1.5
			c0.4,0.5,0.9,1.1,1.3,1.6s0.4,0.8-0.1,1.2c-1.9,1.5-3.8,3.1-5.7,4.6c-0.7,0.5-1.3,1.1-2,1.6c-0.5,0.4-0.8,0.4-1.3-0.1
			c-0.4-0.4-0.8-0.8-1.2-1.2c-1-0.9-2.1-1.7-3.1-2.6c0,0-0.1,0-0.1-0.1c0.1,0,0.2,0,0.3,0.1c0.7,0.2,1.4,0.4,2.1,0.7
			c0.8,0.3,1.6-0.1,1.9-0.8c0.3-0.7,0-1.5-0.7-2c-0.6-0.4-1.3-0.7-1.9-1.1C439.7,18.7,439.6,18.7,439.5,18.6z M444.2,16.1
			c-0.9-0.1-1.9,0.8-2,1.6C442.9,17.2,443.5,16.6,444.2,16.1z"/>
		<path class="st7" d="M453.6,31.5c-0.7,0.1-1.4,0.1-2.1,0.2c-0.9,0.1-1.9,0.2-2.8,0.3c-0.1,0-0.3,0-0.4-0.1
			c-0.4-0.5-0.9-0.7-1.6-0.7c-1.2,0-2.4,0-3.6,0c-0.9,0-1.7-0.2-2.4-0.7c-1.1-0.9-2.2-1.8-3.2-2.8c-0.4-0.4-0.4-0.9-0.1-1.3
			s0.9-0.5,1.3-0.2c0.8,0.6,1.7,1.1,2.5,1.7c0.6,0.4,1.2,0.6,2,0.6c1.1,0,2.1,0,3.2,0c0.1,0,0.2,0,0.2,0c0.1-0.1,0.2-0.2,0.2-0.3
			c0-0.1-0.1-0.2-0.2-0.3c-0.1,0-0.2,0-0.3,0c-0.7,0-1.4,0-2,0s-1.1-0.6-0.9-1.2c0.1-0.4,0.4-0.6,0.8-0.6c1.7,0,3.4,0,5.1,0
			c1.1,0,1.9,0.6,2.4,1.5c0.6,1,1,2.1,1.4,3.2C453.4,31,453.5,31.3,453.6,31.5z"/>
		<path class="st7" d="M433.7,15.7c1.1-0.3,2.2-0.6,3.2-0.9c0.9-0.3,1.7-0.3,2.6-0.1c0.7,0.1,1.4,0.2,2.1,0.4
			c-0.1,0.1-0.1,0.2-0.2,0.2c-0.6,0.7-1.2,1.5-1.9,2.2c-0.1,0.1-0.3,0.2-0.4,0.2s-0.3,0-0.4,0c-0.3,0-0.5,0.2-0.6,0.4
			c-0.1,0.3,0.1,0.5,0.3,0.6c0.8,0.5,1.7,0.9,2.5,1.4c0.1,0.1,0.3,0.2,0.4,0.2c0.4,0.3,0.6,0.7,0.4,1.2c-0.2,0.4-0.6,0.6-1.1,0.5
			c-1.2-0.4-2.3-0.7-3.4-1.1c-0.4-0.1-0.7-0.4-1-0.7c-0.4-0.4-0.8-0.6-1.3-0.4c-0.4,0.1-0.8,0.2-1.2,0.3
			C433.7,18.6,433.7,17.1,433.7,15.7z"/>
		<path class="st7" d="M448.1,32.7c2.1-0.2,4.1-0.4,6.1-0.6c0,0.4,0,0.9,0,1.3c0,0.1-0.1,0.1-0.2,0.2c0,0-0.1,0-0.2,0
			c-1.8,0-3.7,0-5.5,0c-0.3,0-0.4-0.1-0.3-0.4c0-0.1,0-0.1,0-0.2C448.1,33,448.1,32.8,448.1,32.7z"/>
		<polygon class="st7" points="448.4,36.7 453.3,34.3 453.6,33.2 448.1,33.2 		"/>
		<path class="st7" d="M431.6,15.1c0.5,0,0.9,0,1.4,0c0,2,0,4,0,6.1c-0.2,0-0.5,0-0.7,0c-0.1,0-0.1-0.1-0.1-0.2c-0.1-1-0.2-2-0.3-3
			c-0.1-0.9-0.2-1.8-0.3-2.7C431.6,15.2,431.6,15.1,431.6,15.1z"/>
		<path class="st7" d="M431.9,15.3l0.6,5.9l-3.1-0.2C429.3,20.9,430.9,15.4,431.9,15.3z"/>
	</g>
	<circle class="st24" cx="445.8" cy="19.5" r="2.6"/>
	<g class="st17">
		<path class="st13" d="M460.7,19.3c0-3.5,2.6-5.9,6-5.9c2.3,0,3.8,1.2,4.6,2.6l-1.7,0.9c-0.6-1-1.7-1.7-2.9-1.7c-2.3,0-4,1.7-4,4.1
			s1.7,4.1,4,4.1c1.2,0,2.3-0.7,2.9-1.7l1.7,0.9c-0.9,1.4-2.3,2.6-4.6,2.6C463.3,25.2,460.7,22.8,460.7,19.3z"/>
		<path class="st13" d="M480.9,25l-0.8-2.2h-5.3L474,25h-2.3l4.5-11.5h2.5l4.5,11.5H480.9z M477.4,15.5l-2.1,5.5h4.1L477.4,15.5z"/>
		<path class="st13" d="M483.5,23.4l1.1-1.6c0.8,0.8,2,1.6,3.6,1.6c1.7,0,2.3-0.8,2.3-1.6c0-2.4-6.7-0.9-6.7-5.1
			c0-1.9,1.7-3.4,4.2-3.4c1.8,0,3.2,0.6,4.3,1.6l-1.1,1.5c-0.9-0.9-2.1-1.3-3.3-1.3c-1.2,0-1.9,0.6-1.9,1.4c0,2.2,6.7,0.8,6.7,5.1
			c0,1.9-1.4,3.6-4.4,3.6C486.1,25.2,484.6,24.5,483.5,23.4z"/>
		<path class="st13" d="M502.5,25v-5h-6v5h-2V13.5h2v4.7h6v-4.7h2V25H502.5z"/>
		<path class="st13" d="M460.3,31.1c0-1.4,1-2.4,2.4-2.4s2.4,1,2.4,2.4s-1,2.4-2.4,2.4C461.3,33.6,460.3,32.5,460.3,31.1z
			 M464.3,31.1c0-1-0.6-1.7-1.6-1.7s-1.6,0.7-1.6,1.7c0,1,0.6,1.7,1.6,1.7C463.6,32.8,464.3,32.1,464.3,31.1z"/>
		<path class="st13" d="M469.2,33.5l-2.5-3.4v3.4h-0.8v-4.7h0.8l2.4,3.3v-3.3h0.8v4.7H469.2z"/>
		<path class="st13" d="M472.8,33.5v-4.7h1.8c1.5,0,2.5,1,2.5,2.4s-1,2.4-2.5,2.4L472.8,33.5L472.8,33.5z M476.2,31.1
			c0-0.9-0.6-1.6-1.6-1.6h-0.9v3.3h0.9C475.6,32.8,476.2,32,476.2,31.1z"/>
		<path class="st13" d="M477.8,33.5v-4.7h3.2v0.7h-2.4v1.2h2.4v0.7h-2.4v1.3h2.4v0.7L477.8,33.5L477.8,33.5z"/>
		<path class="st13" d="M481.8,33.5v-4.7h0.8v4h2.1v0.7H481.8z"/>
		<path class="st13" d="M485.5,33.5v-4.7h0.8v4.7H485.5z"/>
		<path class="st13" d="M488.7,33.5l-1.9-4.7h0.9l1.4,3.8l1.4-3.8h0.9l-1.9,4.7H488.7z"/>
		<path class="st13" d="M492,33.5v-4.7h3.2v0.7h-2.4v1.2h2.4v0.7h-2.4v1.3h2.4v0.7L492,33.5L492,33.5z"/>
		<path class="st13" d="M498.8,33.5l-1-1.8H497v1.8h-0.8v-4.7h2.1c0.9,0,1.5,0.6,1.5,1.5c0,0.8-0.6,1.3-1.1,1.4l1.2,1.9L498.8,33.5
			L498.8,33.5z M498.9,30.3c0-0.5-0.3-0.7-0.8-0.7H497V31h1.1C498.6,31,498.9,30.7,498.9,30.3z"/>
		<path class="st13" d="M501.8,33.5v-2l-1.8-2.8h0.9l1.3,2l1.3-2h0.9l-1.8,2.8v2H501.8z"/>
	</g>
	<g class="st17">
		<path class="st13" d="M444,38.1c-8.4,0-15.2-6.8-15.2-15.2S435.6,7.7,444,7.7c8.4,0,15.2,6.8,15.2,15.2S452.4,38.1,444,38.1z
			 M444,8.6c-7.9,0-14.3,6.4-14.3,14.3s6.4,14.3,14.3,14.3s14.3-6.4,14.3-14.3S451.9,8.6,444,8.6z"/>
	</g>
	<path class="st21" d="M445.4,18.1l0.5-0.3v-0.4l-1.8,1.3v0.4l0.3-0.2c0.3-0.2,0.6-0.4,0.9-0.2l-0.9,0.6v0.4l1.1-0.8l0,0
		c0.1,0.2,0.2,0.6-0.4,1l-0.3,0.2l0.2,0.3l2,0.6l0.5-0.3l-2.1-0.6c0.4-0.3,0.7-0.9,0.4-1.4l0.3-0.2v-0.4l-0.5,0.4
		C445.7,18.2,445.6,18.1,445.4,18.1z"/>
</g>
<g class="st15">
	<path class="st25" d="M506,7.7h-62c-0.3,0-0.5,0.1-0.7,0.1c-0.6,0.3-1.1,0.9-1.1,1.6v26.9c0,1,0.8,1.8,1.8,1.8h62
		c0.5,0,0.9-0.2,1.2-0.4c0.4-0.3,0.6-0.8,0.6-1.3V9.5C507.7,8.5,506.9,7.7,506,7.7z M444,8.6h62c0.5,0,0.9,0.4,0.9,0.9v26.9
		c0,0.5-0.4,0.9-0.9,0.9h-62c-0.5,0-0.9-0.4-0.9-0.9V9.5C443.1,9,443.5,8.6,444,8.6z"/>
	<g class="st17">
		<circle class="st20" cx="443.9" cy="22.9" r="14.4"/>
		<path class="st20" d="M443.9,37.8c-8.2,0-14.8-6.6-14.8-14.8s6.6-14.8,14.8-14.8s14.8,6.6,14.8,14.8
			C458.7,31.1,452.1,37.8,443.9,37.8z M443.9,9c-7.7,0-13.9,6.2-13.9,13.9s6.2,13.9,13.9,13.9s13.9-6.2,13.9-13.9S451.6,9,443.9,9z"
			/>
	</g>
	<g class="st17">
		<path class="st7" d="M439.4,18.6c2.2-2.6,4.4-5.2,6.6-7.8c1.8,1.5,3.7,3.1,5.5,4.6c-0.4,0.5-0.9,1-1.3,1.5
			c0.4,0.5,0.9,1.1,1.3,1.6s0.4,0.8-0.1,1.3c-1.9,1.5-3.8,3.1-5.7,4.6c-0.7,0.5-1.3,1.1-2,1.6c-0.5,0.4-0.8,0.4-1.3-0.1
			c-0.4-0.4-0.8-0.8-1.2-1.2c-1-0.9-2.1-1.7-3.1-2.6c0,0-0.1,0-0.1-0.1c0.1,0,0.2,0,0.3,0.1c0.7,0.2,1.4,0.4,2.1,0.7
			c0.8,0.3,1.6-0.1,2-0.9c0.3-0.7,0-1.5-0.7-2c-0.6-0.4-1.3-0.7-1.9-1.1C439.6,18.7,439.5,18.7,439.4,18.6z M444.1,16.1
			c-0.9-0.1-2,0.8-2,1.6C442.7,17.2,443.4,16.6,444.1,16.1z"/>
		<path class="st7" d="M453.5,31.6c-0.7,0.1-1.4,0.1-2.1,0.2c-1,0.1-1.9,0.2-2.9,0.3c-0.1,0-0.3,0-0.4-0.1c-0.4-0.5-0.9-0.7-1.6-0.7
			c-1.2,0-2.4,0-3.6,0c-0.9,0-1.7-0.2-2.4-0.7c-1.1-0.9-2.2-1.8-3.3-2.8c-0.4-0.4-0.4-0.9-0.1-1.3s0.9-0.5,1.4-0.2
			c0.8,0.6,1.7,1.2,2.5,1.7c0.6,0.4,1.2,0.6,2,0.6c1.1,0,2.1,0,3.2,0c0.1,0,0.2,0,0.3,0c0.1-0.1,0.2-0.2,0.2-0.3
			c0-0.1-0.1-0.2-0.2-0.3c-0.1,0-0.2,0-0.3,0c-0.7,0-1.4,0-2,0s-1.1-0.6-0.9-1.2c0.1-0.4,0.4-0.6,0.8-0.6c1.7,0,3.4,0,5.2,0
			c1.1,0,1.9,0.6,2.4,1.5c0.6,1,1,2.1,1.4,3.2C453.3,31.1,453.4,31.3,453.5,31.6z"/>
		<path class="st7" d="M433.5,15.7c1.1-0.3,2.2-0.6,3.2-0.9c0.9-0.3,1.7-0.3,2.6-0.1c0.7,0.1,1.4,0.2,2.1,0.4
			c-0.1,0.1-0.1,0.2-0.2,0.2c-0.6,0.7-1.2,1.5-1.9,2.2c-0.1,0.1-0.3,0.2-0.4,0.2s-0.3,0-0.4,0c-0.3,0-0.5,0.2-0.6,0.4
			c-0.1,0.3,0.1,0.5,0.3,0.6c0.8,0.5,1.7,0.9,2.5,1.4c0.1,0.1,0.3,0.2,0.4,0.2c0.4,0.3,0.6,0.7,0.4,1.2c-0.2,0.4-0.6,0.6-1.1,0.5
			c-1.2-0.4-2.3-0.7-3.5-1.1c-0.4-0.1-0.7-0.4-1-0.7c-0.4-0.4-0.8-0.6-1.4-0.4c-0.4,0.1-0.8,0.2-1.2,0.3
			C433.5,18.7,433.5,17.1,433.5,15.7z"/>
		<path class="st7" d="M448,32.8c2.1-0.2,4.1-0.4,6.2-0.6c0,0.5,0,0.9,0,1.3c0,0.1-0.1,0.1-0.2,0.2c0,0-0.1,0-0.2,0
			c-1.8,0-3.7,0-5.5,0c-0.3,0-0.4-0.1-0.3-0.4c0-0.1,0-0.1,0-0.2C448,33,448,32.9,448,32.8z"/>
		<polygon class="st7" points="448.4,36.8 453.2,34.4 453.5,33.3 448,33.3 		"/>
		<path class="st7" d="M431.4,15.1c0.5,0,0.9,0,1.4,0c0,2,0,4,0,6.1c-0.2,0-0.5,0-0.7,0c-0.1,0-0.1-0.1-0.1-0.2c-0.1-1-0.2-2-0.3-3
			c-0.1-0.9-0.2-1.8-0.3-2.7C431.4,15.2,431.4,15.1,431.4,15.1z"/>
		<path class="st7" d="M431.7,15.3l0.6,5.9l-3.1-0.2C429.2,20.9,430.7,15.4,431.7,15.3z"/>
	</g>
	<circle class="st25" cx="445.7" cy="19.5" r="2.6"/>
	<g class="st17">
		<path class="st18" d="M460.7,19.3c0-3.6,2.6-6,6.1-6c2.3,0,3.8,1.2,4.6,2.6l-1.7,0.9c-0.6-1-1.7-1.7-2.9-1.7c-2.3,0-4,1.7-4,4.2
			c0,2.4,1.7,4.2,4,4.2c1.2,0,2.4-0.7,2.9-1.7l1.7,0.9c-0.9,1.4-2.3,2.6-4.6,2.6C463.3,25.3,460.7,22.8,460.7,19.3z"/>
		<path class="st18" d="M481,25.1l-0.8-2.2h-5.3l-0.8,2.2h-2.3l4.5-11.5h2.5l4.5,11.5H481z M477.5,15.5l-2.1,5.5h4.2L477.5,15.5z"/>
		<path class="st18" d="M483.6,23.4l1.1-1.6c0.8,0.8,2,1.6,3.6,1.6c1.7,0,2.3-0.8,2.3-1.6c0-2.4-6.7-0.9-6.7-5.2
			c0-1.9,1.7-3.4,4.2-3.4c1.8,0,3.3,0.6,4.3,1.6l-1.1,1.5c-0.9-0.9-2.1-1.3-3.4-1.3c-1.2,0-1.9,0.6-1.9,1.4c0,2.2,6.7,0.8,6.7,5.1
			c0,1.9-1.4,3.6-4.5,3.6C486.2,25.3,484.6,24.5,483.6,23.4z"/>
		<path class="st18" d="M502.6,25.1v-5h-6v5h-2V13.5h2v4.7h6v-4.7h2V25h-2V25.1z"/>
		<path class="st18" d="M460.2,31.2c0-1.4,1-2.4,2.4-2.4s2.4,1,2.4,2.4c0,1.4-1,2.4-2.4,2.4C461.2,33.7,460.2,32.6,460.2,31.2z
			 M464.2,31.2c0-1-0.6-1.7-1.6-1.7s-1.6,0.7-1.6,1.7s0.6,1.7,1.6,1.7S464.2,32.2,464.2,31.2z"/>
		<path class="st18" d="M469.2,33.6l-2.5-3.4v3.4h-0.8v-4.7h0.9l2.4,3.3v-3.3h0.8v4.7H469.2z"/>
		<path class="st18" d="M472.8,33.6v-4.7h1.8c1.5,0,2.5,1,2.5,2.4s-1,2.4-2.5,2.4L472.8,33.6L472.8,33.6z M476.2,31.2
			c0-0.9-0.6-1.6-1.6-1.6h-0.9v3.3h0.9C475.6,32.8,476.2,32.1,476.2,31.2z"/>
		<path class="st18" d="M477.9,33.6v-4.7h3.2v0.7h-2.4v1.2h2.4v0.7h-2.4v1.3h2.4v0.7L477.9,33.6L477.9,33.6z"/>
		<path class="st18" d="M481.9,33.6v-4.7h0.8v4h2.1v0.7H481.9z"/>
		<path class="st18" d="M485.5,33.6v-4.7h0.8v4.7H485.5z"/>
		<path class="st18" d="M488.7,33.6l-1.9-4.7h0.9l1.4,3.8l1.4-3.8h0.9l-1.9,4.7H488.7z"/>
		<path class="st18" d="M492.1,33.6v-4.7h3.2v0.7H493v1.2h2.4v0.7H493v1.3h2.4v0.7L492.1,33.6L492.1,33.6z"/>
		<path class="st18" d="M498.9,33.6l-1-1.8h-0.8v1.8h-0.8v-4.7h2.1c0.9,0,1.6,0.6,1.6,1.5c0,0.8-0.6,1.3-1.1,1.4l1.2,1.9L498.9,33.6
			L498.9,33.6z M499,30.3c0-0.5-0.3-0.7-0.8-0.7h-1.1v1.5h1.1C498.7,31.1,499,30.8,499,30.3z"/>
		<path class="st18" d="M501.9,33.6v-2l-1.8-2.8h1l1.3,2l1.3-2h1l-1.8,2.8v2H501.9z"/>
	</g>
	<g class="st17">
		<path class="st20" d="M443.9,38.2c-8.4,0-15.2-6.8-15.2-15.2s6.8-15.2,15.2-15.2c8.4,0,15.2,6.8,15.2,15.2
			C459.1,31.3,452.3,38.2,443.9,38.2z M443.9,8.6c-7.9,0-14.3,6.4-14.3,14.3s6.4,14.3,14.3,14.3s14.3-6.4,14.3-14.3
			S451.8,8.6,443.9,8.6z"/>
	</g>
	<path class="st21" d="M445.3,18.1l0.5-0.3v-0.4l-1.8,1.3v0.4l0.3-0.2c0.3-0.2,0.6-0.4,0.9-0.2l-0.9,0.6v0.4l1.1-0.8l0,0
		c0.1,0.2,0.2,0.6-0.4,1l-0.3,0.2l0.2,0.3l2,0.6l0.5-0.3l-2.1-0.6c0.4-0.3,0.7-0.9,0.4-1.4l0.3-0.2v-0.4l-0.5,0.4
		C445.6,18.2,445.4,18.2,445.3,18.1z"/>
</g>
<path class="st18" d="M506,7.7h-62c-0.3,0-0.5,0.1-0.7,0.1c-0.6,0.3-1.1,0.9-1.1,1.6v26.9c0,1,0.8,1.8,1.8,1.8h62
	c0.5,0,0.9-0.2,1.2-0.4c0.4-0.3,0.6-0.8,0.6-1.3V9.5C507.7,8.5,506.9,7.7,506,7.7z M444,8.6h62c0.5,0,0.9,0.4,0.9,0.9v26.9
	c0,0.5-0.4,0.9-0.9,0.9h-62c-0.5,0-0.9-0.4-0.9-0.9V9.5C443.1,9,443.5,8.6,444,8.6z"/>
<g>
	<circle class="st18" cx="443.9" cy="22.9" r="14.4"/>
	<path class="st18" d="M443.9,37.8c-8.2,0-14.8-6.6-14.8-14.8s6.6-14.8,14.8-14.8s14.8,6.6,14.8,14.8
		C458.7,31.1,452.1,37.8,443.9,37.8z M443.9,9c-7.7,0-13.9,6.2-13.9,13.9s6.2,13.9,13.9,13.9s13.9-6.2,13.9-13.9S451.6,9,443.9,9z"
		/>
</g>
<g>
	<path class="st7" d="M439.4,18.6c2.2-2.6,4.4-5.2,6.6-7.8c1.8,1.5,3.7,3.1,5.5,4.6c-0.4,0.5-0.9,1-1.3,1.5c0.4,0.5,0.9,1.1,1.3,1.6
		s0.4,0.8-0.1,1.3c-1.9,1.5-3.8,3.1-5.7,4.6c-0.7,0.5-1.3,1.1-2,1.6c-0.5,0.4-0.8,0.4-1.3-0.1c-0.4-0.4-0.8-0.8-1.2-1.2
		c-1-0.9-2.1-1.7-3.1-2.6c0,0-0.1,0-0.1-0.1c0.1,0,0.2,0,0.3,0.1c0.7,0.2,1.4,0.4,2.1,0.7c0.8,0.3,1.6-0.1,2-0.9
		c0.3-0.7,0-1.5-0.7-2c-0.6-0.4-1.3-0.7-1.9-1.1C439.6,18.7,439.5,18.7,439.4,18.6z M444.1,16.1c-0.9-0.1-2,0.8-2,1.6
		C442.7,17.2,443.4,16.6,444.1,16.1z"/>
	<path class="st7" d="M453.5,31.6c-0.7,0.1-1.4,0.1-2.1,0.2c-1,0.1-1.9,0.2-2.9,0.3c-0.1,0-0.3,0-0.4-0.1c-0.4-0.5-0.9-0.7-1.6-0.7
		c-1.2,0-2.4,0-3.6,0c-0.9,0-1.7-0.2-2.4-0.7c-1.1-0.9-2.2-1.8-3.3-2.8c-0.4-0.4-0.4-0.9-0.1-1.3s0.9-0.5,1.4-0.2
		c0.8,0.6,1.7,1.2,2.5,1.7c0.6,0.4,1.2,0.6,2,0.6c1.1,0,2.1,0,3.2,0c0.1,0,0.2,0,0.3,0c0.1-0.1,0.2-0.2,0.2-0.3
		c0-0.1-0.1-0.2-0.2-0.3c-0.1,0-0.2,0-0.3,0c-0.7,0-1.4,0-2,0s-1.1-0.6-0.9-1.2c0.1-0.4,0.4-0.6,0.8-0.6c1.7,0,3.4,0,5.2,0
		c1.1,0,1.9,0.6,2.4,1.5c0.6,1,1,2.1,1.4,3.2C453.3,31.1,453.4,31.3,453.5,31.6z"/>
	<path class="st7" d="M433.5,15.7c1.1-0.3,2.2-0.6,3.2-0.9c0.9-0.3,1.7-0.3,2.6-0.1c0.7,0.1,1.4,0.2,2.1,0.4
		c-0.1,0.1-0.1,0.2-0.2,0.2c-0.6,0.7-1.2,1.5-1.9,2.2c-0.1,0.1-0.3,0.2-0.4,0.2s-0.3,0-0.4,0c-0.3,0-0.5,0.2-0.6,0.4
		c-0.1,0.3,0.1,0.5,0.3,0.6c0.8,0.5,1.7,0.9,2.5,1.4c0.1,0.1,0.3,0.2,0.4,0.2c0.4,0.3,0.6,0.7,0.4,1.2c-0.2,0.4-0.6,0.6-1.1,0.5
		c-1.2-0.4-2.3-0.7-3.5-1.1c-0.4-0.1-0.7-0.4-1-0.7c-0.4-0.4-0.8-0.6-1.4-0.4c-0.4,0.1-0.8,0.2-1.2,0.3
		C433.5,18.7,433.5,17.1,433.5,15.7z"/>
	<path class="st7" d="M448,32.8c2.1-0.2,4.1-0.4,6.2-0.6c0,0.5,0,0.9,0,1.3c0,0.1-0.1,0.1-0.2,0.2c0,0-0.1,0-0.2,0
		c-1.8,0-3.7,0-5.5,0c-0.3,0-0.4-0.1-0.3-0.4c0-0.1,0-0.1,0-0.2C448,33,448,32.9,448,32.8z"/>
	<polygon class="st7" points="448.4,36.8 453.2,34.4 453.5,33.3 448,33.3 	"/>
	<path class="st7" d="M431.4,15.1c0.5,0,0.9,0,1.4,0c0,2,0,4,0,6.1c-0.2,0-0.5,0-0.7,0c-0.1,0-0.1-0.1-0.1-0.2c-0.1-1-0.2-2-0.3-3
		c-0.1-0.9-0.2-1.8-0.3-2.7C431.4,15.2,431.4,15.1,431.4,15.1z"/>
	<path class="st7" d="M431.7,15.3l0.6,5.9l-3.1-0.2C429.2,20.9,430.7,15.4,431.7,15.3z"/>
</g>
<circle class="st18" cx="445.7" cy="19.5" r="2.6"/>
<g>
	<path class="st18" d="M460.7,19.3c0-3.6,2.6-6,6.1-6c2.3,0,3.8,1.2,4.6,2.6l-1.7,0.9c-0.6-1-1.7-1.7-2.9-1.7c-2.3,0-4,1.7-4,4.2
		c0,2.4,1.7,4.2,4,4.2c1.2,0,2.4-0.7,2.9-1.7l1.7,0.9c-0.9,1.4-2.3,2.6-4.6,2.6C463.3,25.3,460.7,22.8,460.7,19.3z"/>
	<path class="st18" d="M481,25.1l-0.8-2.2h-5.3l-0.8,2.2h-2.3l4.5-11.5h2.5l4.5,11.5H481z M477.5,15.5l-2.1,5.5h4.2L477.5,15.5z"/>
	<path class="st18" d="M483.6,23.4l1.1-1.6c0.8,0.8,2,1.6,3.6,1.6c1.7,0,2.3-0.8,2.3-1.6c0-2.4-6.7-0.9-6.7-5.2
		c0-1.9,1.7-3.4,4.2-3.4c1.8,0,3.3,0.6,4.3,1.6l-1.1,1.5c-0.9-0.9-2.1-1.3-3.4-1.3c-1.2,0-1.9,0.6-1.9,1.4c0,2.2,6.7,0.8,6.7,5.1
		c0,1.9-1.4,3.6-4.5,3.6C486.2,25.3,484.6,24.5,483.6,23.4z"/>
	<path class="st18" d="M502.6,25.1v-5h-6v5h-2V13.5h2v4.7h6v-4.7h2V25h-2V25.1z"/>
	<path class="st18" d="M460.2,31.2c0-1.4,1-2.4,2.4-2.4s2.4,1,2.4,2.4c0,1.4-1,2.4-2.4,2.4C461.2,33.7,460.2,32.6,460.2,31.2z
		 M464.2,31.2c0-1-0.6-1.7-1.6-1.7s-1.6,0.7-1.6,1.7s0.6,1.7,1.6,1.7S464.2,32.2,464.2,31.2z"/>
	<path class="st18" d="M469.2,33.6l-2.5-3.4v3.4h-0.8v-4.7h0.9l2.4,3.3v-3.3h0.8v4.7H469.2z"/>
	<path class="st18" d="M472.8,33.6v-4.7h1.8c1.5,0,2.5,1,2.5,2.4s-1,2.4-2.5,2.4L472.8,33.6L472.8,33.6z M476.2,31.2
		c0-0.9-0.6-1.6-1.6-1.6h-0.9v3.3h0.9C475.6,32.8,476.2,32.1,476.2,31.2z"/>
	<path class="st18" d="M477.9,33.6v-4.7h3.2v0.7h-2.4v1.2h2.4v0.7h-2.4v1.3h2.4v0.7L477.9,33.6L477.9,33.6z"/>
	<path class="st18" d="M481.9,33.6v-4.7h0.8v4h2.1v0.7H481.9z"/>
	<path class="st18" d="M485.5,33.6v-4.7h0.8v4.7H485.5z"/>
	<path class="st18" d="M488.7,33.6l-1.9-4.7h0.9l1.4,3.8l1.4-3.8h0.9l-1.9,4.7H488.7z"/>
	<path class="st18" d="M492.1,33.6v-4.7h3.2v0.7H493v1.2h2.4v0.7H493v1.3h2.4v0.7L492.1,33.6L492.1,33.6z"/>
	<path class="st18" d="M498.9,33.6l-1-1.8h-0.8v1.8h-0.8v-4.7h2.1c0.9,0,1.6,0.6,1.6,1.5c0,0.8-0.6,1.3-1.1,1.4l1.2,1.9L498.9,33.6
		L498.9,33.6z M499,30.3c0-0.5-0.3-0.7-0.8-0.7h-1.1v1.5h1.1C498.7,31.1,499,30.8,499,30.3z"/>
	<path class="st18" d="M501.9,33.6v-2l-1.8-2.8h1l1.3,2l1.3-2h1l-1.8,2.8v2H501.9z"/>
</g>
<g>
	<path class="st18" d="M443.9,38.2c-8.4,0-15.2-6.8-15.2-15.2s6.8-15.2,15.2-15.2c8.4,0,15.2,6.8,15.2,15.2
		C459.1,31.3,452.3,38.2,443.9,38.2z M443.9,8.6c-7.9,0-14.3,6.4-14.3,14.3s6.4,14.3,14.3,14.3s14.3-6.4,14.3-14.3
		S451.8,8.6,443.9,8.6z"/>
</g>
<path class="st26" d="M445.3,18.1l0.5-0.3v-0.4l-1.8,1.3v0.4l0.3-0.2c0.3-0.2,0.6-0.4,0.9-0.2l-0.9,0.6v0.4l1.1-0.8l0,0
	c0.1,0.2,0.2,0.6-0.4,1l-0.3,0.2l0.2,0.3l2,0.6l0.5-0.3l-2.1-0.6c0.4-0.3,0.7-0.9,0.4-1.4l0.3-0.2v-0.4l-0.5,0.4
	C445.6,18.2,445.4,18.2,445.3,18.1z"/>
</svg>
